<mxfile host="65bd71144e">
    <diagram id="Ipb4iDRJUyX-Ee_x3HUW" name="Method DeletingLinesFromArray">
        <mxGraphModel dx="747" dy="403" grid="1" gridSize="10" guides="1" tooltips="1" connect="1" arrows="1" fold="1" page="1" pageScale="1" pageWidth="827" pageHeight="1169" math="0" shadow="0">
            <root>
                <mxCell id="0"/>
                <mxCell id="1" parent="0"/>
                <mxCell id="42" value="" style="edgeStyle=none;shape=connector;rounded=1;jumpSize=6;html=1;shadow=0;labelBackgroundColor=default;strokeColor=default;fontFamily=Verdana;fontSize=12;fontColor=default;endArrow=classic;" edge="1" parent="1" source="2" target="41">
                    <mxGeometry relative="1" as="geometry"/>
                </mxCell>
                <mxCell id="2" value="&lt;font face=&quot;Verdana&quot; style=&quot;font-size: 12px;&quot;&gt;Start&lt;/font&gt;" style="rounded=1;whiteSpace=wrap;html=1;arcSize=50;" vertex="1" parent="1">
                    <mxGeometry x="300" y="40" width="200" height="40" as="geometry"/>
                </mxCell>
                <mxCell id="35" value="" style="edgeStyle=none;html=1;fontFamily=Verdana;fontSize=12;" edge="1" parent="1" source="22" target="24">
                    <mxGeometry relative="1" as="geometry"/>
                </mxCell>
                <mxCell id="22" value="arrayNew = new string[array.Length]" style="rounded=0;whiteSpace=wrap;html=1;strokeWidth=1;fontFamily=Verdana;fontSize=12;" vertex="1" parent="1">
                    <mxGeometry x="300" y="200" width="200" height="40" as="geometry"/>
                </mxCell>
                <mxCell id="26" value="" style="edgeStyle=none;html=1;fontFamily=Verdana;fontSize=12;" edge="1" parent="1" source="24" target="25">
                    <mxGeometry relative="1" as="geometry"/>
                </mxCell>
                <mxCell id="24" value="j = 0" style="rounded=0;whiteSpace=wrap;html=1;strokeWidth=1;fontFamily=Verdana;fontSize=12;" vertex="1" parent="1">
                    <mxGeometry x="300" y="280" width="200" height="40" as="geometry"/>
                </mxCell>
                <mxCell id="28" value="" style="edgeStyle=none;html=1;fontFamily=Verdana;fontSize=12;" edge="1" parent="1" source="25" target="27">
                    <mxGeometry relative="1" as="geometry"/>
                </mxCell>
                <mxCell id="45" style="edgeStyle=none;shape=connector;rounded=0;jumpSize=6;html=1;exitX=1;exitY=0.5;exitDx=0;exitDy=0;shadow=0;labelBackgroundColor=default;strokeColor=default;fontFamily=Verdana;fontSize=12;fontColor=default;endArrow=classic;entryX=0.5;entryY=0;entryDx=0;entryDy=0;" edge="1" parent="1" source="25" target="44">
                    <mxGeometry relative="1" as="geometry">
                        <mxPoint x="400" y="700" as="targetPoint"/>
                        <Array as="points">
                            <mxPoint x="600" y="380"/>
                            <mxPoint x="600" y="700"/>
                            <mxPoint x="400" y="700"/>
                        </Array>
                    </mxGeometry>
                </mxCell>
                <mxCell id="25" value="i = 0; i &amp;lt; array.Length; i++" style="shape=hexagon;perimeter=hexagonPerimeter2;whiteSpace=wrap;html=1;fixedSize=1;strokeWidth=1;fontFamily=Verdana;fontSize=12;" vertex="1" parent="1">
                    <mxGeometry x="300" y="360" width="200" height="40" as="geometry"/>
                </mxCell>
                <mxCell id="31" value="" style="edgeStyle=none;html=1;fontFamily=Verdana;fontSize=12;" edge="1" parent="1" source="27" target="30">
                    <mxGeometry relative="1" as="geometry"/>
                </mxCell>
                <mxCell id="37" style="edgeStyle=none;html=1;exitX=1;exitY=0.5;exitDx=0;exitDy=0;fontFamily=Verdana;fontSize=12;rounded=0;shadow=0;jumpSize=6;" edge="1" parent="1" source="27">
                    <mxGeometry relative="1" as="geometry">
                        <mxPoint x="400" y="660" as="targetPoint"/>
                        <Array as="points">
                            <mxPoint x="560" y="460"/>
                            <mxPoint x="560" y="660"/>
                        </Array>
                    </mxGeometry>
                </mxCell>
                <mxCell id="27" value="array[i].Length &amp;lt;= 3" style="rhombus;whiteSpace=wrap;html=1;strokeWidth=1;fontFamily=Verdana;fontSize=12;" vertex="1" parent="1">
                    <mxGeometry x="300" y="440" width="200" height="40" as="geometry"/>
                </mxCell>
                <mxCell id="29" value="Yes" style="text;html=1;strokeColor=none;fillColor=none;align=center;verticalAlign=middle;whiteSpace=wrap;rounded=0;strokeWidth=1;fontFamily=Verdana;fontSize=12;" vertex="1" parent="1">
                    <mxGeometry x="400" y="400" width="40" height="30" as="geometry"/>
                </mxCell>
                <mxCell id="34" value="" style="edgeStyle=none;html=1;fontFamily=Verdana;fontSize=12;" edge="1" parent="1" source="30" target="33">
                    <mxGeometry relative="1" as="geometry"/>
                </mxCell>
                <mxCell id="30" value="arrayNew[j] = array[i]" style="rounded=0;whiteSpace=wrap;html=1;strokeWidth=1;fontFamily=Verdana;fontSize=12;" vertex="1" parent="1">
                    <mxGeometry x="300" y="520" width="200" height="40" as="geometry"/>
                </mxCell>
                <mxCell id="32" value="Yes" style="text;html=1;strokeColor=none;fillColor=none;align=center;verticalAlign=middle;whiteSpace=wrap;rounded=0;strokeWidth=1;fontFamily=Verdana;fontSize=12;" vertex="1" parent="1">
                    <mxGeometry x="400" y="480" width="40" height="30" as="geometry"/>
                </mxCell>
                <mxCell id="39" style="edgeStyle=none;shape=connector;rounded=0;jumpSize=6;html=1;exitX=0.5;exitY=1;exitDx=0;exitDy=0;shadow=0;labelBackgroundColor=default;strokeColor=default;fontFamily=Verdana;fontSize=12;fontColor=default;endArrow=classic;entryX=0;entryY=0.5;entryDx=0;entryDy=0;" edge="1" parent="1" source="33" target="25">
                    <mxGeometry relative="1" as="geometry">
                        <mxPoint x="280" y="380" as="targetPoint"/>
                        <Array as="points">
                            <mxPoint x="400" y="680"/>
                            <mxPoint x="280" y="680"/>
                            <mxPoint x="240" y="680"/>
                            <mxPoint x="240" y="530"/>
                            <mxPoint x="240" y="380"/>
                        </Array>
                    </mxGeometry>
                </mxCell>
                <mxCell id="33" value="j++" style="rounded=0;whiteSpace=wrap;html=1;strokeWidth=1;fontFamily=Verdana;fontSize=12;" vertex="1" parent="1">
                    <mxGeometry x="300" y="600" width="200" height="40" as="geometry"/>
                </mxCell>
                <mxCell id="40" value="No" style="text;html=1;strokeColor=none;fillColor=none;align=center;verticalAlign=middle;whiteSpace=wrap;rounded=0;strokeWidth=1;fontFamily=Verdana;fontSize=12;fontColor=default;" vertex="1" parent="1">
                    <mxGeometry x="500" y="430" width="40" height="30" as="geometry"/>
                </mxCell>
                <mxCell id="43" value="" style="edgeStyle=none;shape=connector;rounded=1;jumpSize=6;html=1;shadow=0;labelBackgroundColor=default;strokeColor=default;fontFamily=Verdana;fontSize=12;fontColor=default;endArrow=classic;" edge="1" parent="1" source="41" target="22">
                    <mxGeometry relative="1" as="geometry"/>
                </mxCell>
                <mxCell id="41" value="input array" style="shape=parallelogram;html=1;strokeWidth=2;perimeter=parallelogramPerimeter;whiteSpace=wrap;rounded=1;arcSize=0;size=0.23;fontFamily=Verdana;fontSize=12;fontColor=default;" vertex="1" parent="1">
                    <mxGeometry x="300" y="120" width="200" height="40" as="geometry"/>
                </mxCell>
                <mxCell id="48" value="" style="edgeStyle=none;shape=connector;rounded=1;jumpSize=6;html=1;shadow=0;labelBackgroundColor=default;strokeColor=default;fontFamily=Verdana;fontSize=12;fontColor=default;endArrow=classic;" edge="1" parent="1" source="44" target="47">
                    <mxGeometry relative="1" as="geometry"/>
                </mxCell>
                <mxCell id="44" value="output arrayNew, j" style="shape=parallelogram;html=1;strokeWidth=2;perimeter=parallelogramPerimeter;whiteSpace=wrap;rounded=1;arcSize=0;size=0.23;fontFamily=Verdana;fontSize=12;fontColor=default;" vertex="1" parent="1">
                    <mxGeometry x="300" y="720" width="200" height="40" as="geometry"/>
                </mxCell>
                <mxCell id="46" value="No" style="text;html=1;strokeColor=none;fillColor=none;align=center;verticalAlign=middle;whiteSpace=wrap;rounded=0;strokeWidth=1;fontFamily=Verdana;fontSize=12;fontColor=default;" vertex="1" parent="1">
                    <mxGeometry x="500" y="350" width="40" height="30" as="geometry"/>
                </mxCell>
                <mxCell id="47" value="end" style="rounded=1;whiteSpace=wrap;html=1;strokeWidth=1;fontFamily=Verdana;fontSize=12;fontColor=default;arcSize=50;" vertex="1" parent="1">
                    <mxGeometry x="300" y="800" width="200" height="40" as="geometry"/>
                </mxCell>
            </root>
        </mxGraphModel>
    </diagram>
</mxfile>